<svg width="18" height="18" viewBox="0 0 18 18" fill="none" xmlns="http://www.w3.org/2000/svg">
<path d="M8.99935 0.666992C4.48185 0.666992 0.666016 4.48366 0.666016 9.00033C0.666016 13.517 4.48185 17.3337 8.99935 17.3337C13.5168 17.3337 17.3327 13.517 17.3327 9.00033C17.3327 4.48366 13.5168 0.666992 8.99935 0.666992ZM8.99935 11.5003C9.82602 11.5003 10.541 11.2795 10.9102 10.9103L12.0885 12.0895C11.1502 13.027 9.75018 13.167 8.99935 13.167C6.70185 13.167 4.83268 11.2978 4.83268 9.00033C4.83268 6.70283 6.70185 4.83366 8.99935 4.83366C9.75018 4.83366 11.151 4.97366 12.0885 5.91116L10.9102 7.08949C10.5418 6.72032 9.82685 6.50033 8.99935 6.50033C7.64435 6.50033 6.49935 7.64533 6.49935 9.00033C6.49935 10.3553 7.64435 11.5003 8.99935 11.5003Z" fill="white"/>
</svg>
