<svg width="19" height="16" viewBox="0 0 19 16" fill="none" xmlns="http://www.w3.org/2000/svg">
<g clip-path="url(#clip0_359_4178)">
<path d="M1.28952 14.1245H4.29565V6.80711L0 3.58105V12.8332C0 13.1757 0.13586 13.5041 0.377692 13.7463C0.619524 13.9884 0.947519 14.1245 1.28952 14.1245Z" fill="#4285F4"/>
<path d="M14.6152 14.124H17.6247C17.7942 14.1243 17.9622 14.0912 18.1189 14.0264C18.2756 13.9617 18.4181 13.8666 18.5381 13.7467C18.6581 13.6268 18.7533 13.4843 18.8183 13.3275C18.8832 13.1707 18.9167 13.0025 18.9167 12.8328V3.57812L14.621 6.80418L14.6152 14.124Z" fill="#34A853"/>
<path d="M14.6152 1.21108V6.80704L18.9109 3.58099V1.85712C18.9109 0.260634 17.0935 -0.650932 15.8155 0.306957L14.6152 1.21108Z" fill="#FBBC04"/>
<path d="M4.29492 6.8069V1.21094L9.45301 5.08468L14.6119 1.21094V6.8069L9.45301 10.6806L4.29492 6.8069Z" fill="#EA4335"/>
<path d="M0 1.85712V3.57851L4.29565 6.80456V1.21108L3.09535 0.306957C1.81739 -0.650932 0 0.260634 0 1.85712Z" fill="#C5221F"/>
</g>
<defs>
<clipPath id="clip0_359_4178">
<rect width="19" height="15.6269" fill="white"/>
</clipPath>
</defs>
</svg>
