<svg width="11" height="25" viewBox="0 0 11 25" fill="none" xmlns="http://www.w3.org/2000/svg">
<path d="M8.24934 0C7.6526 0 7.0803 0.237053 6.65834 0.659009C6.23639 1.08097 5.99934 1.65326 5.99934 2.25C5.99934 2.84674 6.23639 3.41903 6.65834 3.84099C7.0803 4.26295 7.6526 4.5 8.24934 4.5C8.84607 4.5 9.41837 4.26295 9.84033 3.84099C10.2623 3.41903 10.4993 2.84674 10.4993 2.25C10.4993 1.65326 10.2623 1.08097 9.84033 0.659009C9.41837 0.237053 8.84607 0 8.24934 0ZM7.70934 7.155C5.92434 7.305 1.04934 11.19 1.04934 11.19C0.749335 11.415 0.839336 11.4 1.07934 11.82C1.31934 12.225 1.28934 12.255 1.57434 12.06C1.87434 11.865 2.36934 11.55 3.19434 11.04C6.37434 9 3.70434 13.71 2.33934 21.645C1.79934 25.575 5.33934 23.55 6.25434 22.95C7.15434 22.365 9.56933 20.7 9.80933 20.535C10.1393 20.31 9.89934 20.13 9.64434 19.755C9.46434 19.5 9.28433 19.68 9.28433 19.68C8.30933 20.325 6.52433 21.675 6.28433 20.82C5.99933 19.965 7.82934 14.1 8.83434 10.065C8.99934 9.105 9.44934 7.005 7.70934 7.155Z" fill="white"/>
</svg>
