<svg width="30" height="22" viewBox="0 0 30 22" fill="none" xmlns="http://www.w3.org/2000/svg">
<path d="M25.6198 2.9002C24.5398 1.1002 22.5598 0.200195 20.3998 0.200195H9.59983C7.43983 0.200195 5.45983 1.1002 4.37983 2.9002C0.239826 9.2002 -0.660173 18.7402 2.21983 20.7202C5.09983 22.7002 11.5798 14.0602 14.9998 14.0602C18.4198 14.0602 24.7198 22.7002 27.7798 20.7202C30.6598 18.7402 29.7598 9.2002 25.6198 2.9002ZM11.3998 9.2002H9.59983V11.0002H7.79983V9.2002H5.99983V7.4002H7.79983V5.60019H9.59983V7.4002H11.3998V9.2002ZM21.1198 10.1002C21.1198 11.0002 20.3998 11.7202 19.4998 11.7202C18.5998 11.7202 17.8798 11.0002 17.8798 10.1002C17.8798 9.2002 18.5998 8.4802 19.4998 8.4802C20.3998 8.4802 21.1198 9.2002 21.1198 10.1002ZM24.5398 6.5002C24.5398 7.4002 23.8198 8.12019 22.9198 8.12019C22.0198 8.12019 21.2998 7.4002 21.2998 6.5002C21.2998 5.60019 22.0198 4.8802 22.9198 4.8802C23.8198 4.8802 24.5398 5.60019 24.5398 6.5002Z" fill="#2A2A2A"/>
</svg>
