<svg width="25" height="24" viewBox="0 0 25 24" fill="none" xmlns="http://www.w3.org/2000/svg">
<path d="M24.8552 12.2753C24.8552 11.4595 24.7881 10.6394 24.6449 9.83691H13.1668V14.4579H19.7398C19.467 15.9483 18.5906 17.2667 17.3073 18.1044V21.1027H21.2288C23.5316 19.0127 24.8552 15.9262 24.8552 12.2753Z" fill="#4285F4"/>
<path d="M13.1668 23.9994C16.4488 23.9994 19.2167 22.9367 21.2332 21.1024L17.3118 18.104C16.2208 18.836 14.8123 19.2505 13.1712 19.2505C9.99653 19.2505 7.30472 17.1384 6.33889 14.2988H2.29224V17.3897C4.35805 21.442 8.56567 23.9994 13.1668 23.9994Z" fill="#34A853"/>
<path d="M6.33443 14.2997C5.82468 12.8094 5.82468 11.1956 6.33443 9.70521V6.61426H2.29225C0.566278 10.005 0.566278 13.9999 2.29225 17.3906L6.33443 14.2997Z" fill="#FBBC04"/>
<path d="M13.1668 4.74868C14.9017 4.72223 16.5785 5.36598 17.8349 6.5477L21.3092 3.12163C19.1093 1.08453 16.1895 -0.0354425 13.1668 -0.0001679C8.56565 -0.0001679 4.35805 2.55725 2.29224 6.61383L6.33441 9.70478C7.29577 6.86075 9.99205 4.74868 13.1668 4.74868Z" fill="#EA4335"/>
</svg>
