<svg width="20" height="24" viewBox="0 0 20 24" fill="none" xmlns="http://www.w3.org/2000/svg">
<path d="M10 14.4316C8.97619 14.4316 8.11905 14.1053 7.42857 13.4526C6.7381 12.8 6.39286 12.0105 6.39286 11.0842V3.15789C6.39286 2.27368 6.74405 1.52632 7.44643 0.915789C8.14881 0.305263 9 0 10 0C11 0 11.8512 0.305263 12.5536 0.915789C13.256 1.52632 13.6071 2.27368 13.6071 3.15789V11.0842C13.6071 12.0105 13.2619 12.8 12.5714 13.4526C11.881 14.1053 11.0238 14.4316 10 14.4316ZM8.92857 24V19.7053C6.40476 19.4737 4.28572 18.5368 2.57143 16.8947C0.857143 15.2526 0 13.3158 0 11.0842H2.14286C2.14286 13 2.91071 14.6105 4.44643 15.9158C5.98214 17.2211 7.83333 17.8737 10 17.8737C12.1667 17.8737 14.0179 17.2211 15.5536 15.9158C17.0893 14.6105 17.8571 13 17.8571 11.0842H20C20 13.3158 19.1429 15.2526 17.4286 16.8947C15.7143 18.5368 13.5952 19.4737 11.0714 19.7053V24H8.92857ZM10 12.5368C10.4286 12.5368 10.7798 12.3947 11.0536 12.1105C11.3274 11.8263 11.4643 11.4842 11.4643 11.0842V3.15789C11.4643 2.8 11.3214 2.5 11.0357 2.25789C10.75 2.01579 10.4048 1.89474 10 1.89474C9.59524 1.89474 9.25 2.01579 8.96429 2.25789C8.67857 2.5 8.53572 2.8 8.53572 3.15789V11.0842C8.53572 11.4842 8.67262 11.8263 8.94643 12.1105C9.22024 12.3947 9.57143 12.5368 10 12.5368Z" fill="black" fill-opacity="0.6"/>
</svg>
