<svg width="41" height="28" viewBox="0 0 41 28" fill="none" xmlns="http://www.w3.org/2000/svg">
<path d="M4.5 0.5C2.01797 0.5 0 2.51797 0 5V23C0 25.482 2.01797 27.5 4.5 27.5H36C38.482 27.5 40.5 25.482 40.5 23V5C40.5 2.51797 38.482 0.5 36 0.5H4.5ZM9 23H4.5V18.5C6.98203 18.5 9 20.518 9 23ZM4.5 9.5V5H9C9 7.48203 6.98203 9.5 4.5 9.5ZM31.5 23C31.5 20.518 33.518 18.5 36 18.5V23H31.5ZM36 9.5C33.518 9.5 31.5 7.48203 31.5 5H36V9.5ZM20.25 20.75C16.5234 20.75 13.5 17.7266 13.5 14C13.5 10.2734 16.5234 7.25 20.25 7.25C23.9766 7.25 27 10.2734 27 14C27 17.7266 23.9766 20.75 20.25 20.75Z" fill="#2A2A2A"/>
</svg>
