<svg width="29" height="30" viewBox="0 0 29 30" fill="none" xmlns="http://www.w3.org/2000/svg">
<path d="M3 30C2.175 30 1.469 29.7065 0.882 29.1195C0.294 28.5315 0 27.825 0 27V3C0 2.175 0.294 1.4685 0.882 0.8805C1.469 0.2935 2.175 0 3 0H13.7625C14.1625 0 14.544 0.0750001 14.907 0.225C15.269 0.375 15.5875 0.5875 15.8625 0.8625L23.1375 8.1375C23.4125 8.4125 23.625 8.731 23.775 9.093C23.925 9.456 24 9.8375 24 10.2375V13.65L12 25.6125V30H3ZM15.75 30C15.55 30 15.375 29.925 15.225 29.775C15.075 29.625 15 29.45 15 29.25V27.45C15 27.25 15.044 27.05 15.132 26.85C15.219 26.65 15.325 26.4875 15.45 26.3625L22.725 19.05L25.95 22.2L18.6375 29.55C18.5125 29.7 18.35 29.8125 18.15 29.8875C17.95 29.9625 17.75 30 17.55 30H15.75ZM27.0375 21.15L23.85 17.9625L24.9 16.9125C25.2 16.6125 25.5625 16.4625 25.9875 16.4625C26.4125 16.4625 26.7625 16.6125 27.0375 16.9125L28.0875 18C28.3625 18.3 28.5 18.656 28.5 19.068C28.5 19.481 28.3625 19.825 28.0875 20.1L27.0375 21.15ZM15 10.5H21L13.5 3V9C13.5 9.425 13.644 9.781 13.932 10.068C14.219 10.356 14.575 10.5 15 10.5Z" fill="#2A2A2A"/>
</svg>
