<svg width="34" height="34" viewBox="0 0 34 34" fill="none" xmlns="http://www.w3.org/2000/svg">
<path d="M0.5 0.5V11L11 0.5H0.5ZM26 23H25.13L23.915 21.785C25.263 19.9662 25.9936 17.7638 26 15.5C26 9.695 21.305 5 15.5 5C13.25 5 11 5.75 9.185 7.1C4.55 10.58 3.605 17.165 7.085 21.8C10.565 26.435 17.15 27.38 21.785 23.9L23 25.115V26L30.5 33.5L33.5 30.5L26 23ZM20.9 18.74L18.77 20.87L15.59 17.675L12.41 20.87L10.25 18.74L13.475 15.56L10.25 12.38L12.41 10.25L15.59 13.445L18.77 10.25L20.9 12.38L17.705 15.56L20.9 18.74Z" fill="#2A2A2A"/>
</svg>
