<svg width="14" height="14" viewBox="0 0 14 14" fill="none" xmlns="http://www.w3.org/2000/svg">
<path d="M0.333984 11.6663C0.333984 12.7997 1.20065 13.6663 2.33398 13.6663H11.6673C12.8007 13.6663 13.6673 12.7997 13.6673 11.6663V6.33301H0.333984V11.6663ZM11.6673 1.66634H10.334V0.999674C10.334 0.599674 10.0673 0.333008 9.66732 0.333008C9.26732 0.333008 9.00065 0.599674 9.00065 0.999674V1.66634H5.00065V0.999674C5.00065 0.599674 4.73398 0.333008 4.33398 0.333008C3.93398 0.333008 3.66732 0.599674 3.66732 0.999674V1.66634H2.33398C1.20065 1.66634 0.333984 2.53301 0.333984 3.66634V4.99967H13.6673V3.66634C13.6673 2.53301 12.8007 1.66634 11.6673 1.66634Z" fill="#2A2A2A" fill-opacity="0.8"/>
</svg>
