<svg width="24" height="24" viewBox="0 0 24 24" fill="none" xmlns="http://www.w3.org/2000/svg">
<path d="M0 23.8262L1.69494 17.6689C0.641656 15.8544 0.0968538 13.81 0.0968538 11.7173C0.0968538 5.16085 5.44802 -0.173828 12.0099 -0.173828C15.1939 -0.173828 18.1843 1.06004 20.4361 3.31004C22.688 5.56004 23.9229 8.54795 23.9229 11.7294C23.9229 18.2859 18.5838 23.6205 12.022 23.6205C10.0244 23.6205 8.07518 23.1246 6.33181 22.1689L0 23.8262ZM6.59816 20.0157L6.96136 20.2334C8.4747 21.1286 10.2181 21.6125 11.9978 21.6125C17.4458 21.6125 21.889 17.1729 21.889 11.7294C21.889 9.0923 20.8599 6.60037 18.9954 4.73746C17.131 2.87456 14.637 1.83424 11.9978 1.83424C6.53763 1.83424 2.09446 6.27375 2.09446 11.7173C2.09446 13.5802 2.61505 15.4068 3.6078 16.9794L3.83783 17.3544L2.85719 20.9955L6.59816 20.0157Z" fill="white"/>
<path d="M0.412109 23.4147L2.04652 17.4631C1.04166 15.7212 0.508963 13.7494 0.508963 11.7171C0.508963 5.39053 5.66643 0.237305 12.0103 0.237305C15.0855 0.237305 17.9669 1.43489 20.1461 3.60021C22.3132 5.76553 23.5117 8.65666 23.5117 11.7171C23.5117 18.0438 18.3543 23.197 12.0225 23.197C10.0975 23.197 8.20884 22.7131 6.526 21.7938L0.412109 23.4147Z" fill="url(#paint0_linear_359_4189)"/>
<path d="M0 23.8262L1.69494 17.6689C0.641656 15.8544 0.0968538 13.81 0.0968538 11.7173C0.0968538 5.16085 5.44802 -0.173828 12.0099 -0.173828C15.1939 -0.173828 18.1843 1.06004 20.4361 3.31004C22.688 5.56004 23.9229 8.54795 23.9229 11.7294C23.9229 18.2859 18.5838 23.6205 12.022 23.6205C10.0244 23.6205 8.07518 23.1246 6.33181 22.1689L0 23.8262ZM6.59816 20.0157L6.96136 20.2334C8.4747 21.1286 10.2181 21.6125 11.9978 21.6125C17.4458 21.6125 21.889 17.1729 21.889 11.7294C21.889 9.0923 20.8599 6.60037 18.9954 4.73746C17.131 2.87456 14.637 1.83424 11.9978 1.83424C6.53763 1.83424 2.09446 6.27375 2.09446 11.7173C2.09446 13.5802 2.61505 15.4068 3.6078 16.9794L3.83783 17.3544L2.85719 20.9955L6.59816 20.0157Z" fill="url(#paint1_linear_359_4189)"/>
<path fill-rule="evenodd" clip-rule="evenodd" d="M9.03214 6.74575C8.81422 6.24978 8.57208 6.23768 8.36627 6.23768C8.19677 6.22559 7.99096 6.22559 7.79725 6.22559C7.60355 6.22559 7.27666 6.29817 6.99821 6.60059C6.71975 6.90301 5.95703 7.61671 5.95703 9.08042C5.95703 10.5441 7.02242 11.9595 7.1677 12.153C7.31298 12.3466 9.22585 15.4433 12.2525 16.6409C14.7707 17.6328 15.2792 17.4393 15.824 17.3788C16.3688 17.3304 17.5795 16.6651 17.8337 15.9635C18.0759 15.274 18.0759 14.6691 18.0032 14.5482C17.9306 14.4272 17.7248 14.3546 17.4342 14.1974C17.1315 14.0522 15.6787 13.3264 15.4003 13.2296C15.1218 13.1328 14.9281 13.0845 14.7344 13.3748C14.5407 13.6772 13.9717 14.3425 13.7901 14.5361C13.6206 14.7296 13.439 14.7538 13.1484 14.6086C12.8458 14.4635 11.8893 14.149 10.7513 13.1328C9.8675 12.3466 9.27427 11.3667 9.09267 11.0764C8.92318 10.774 9.06846 10.6167 9.22585 10.4716C9.35902 10.3385 9.52851 10.1207 9.67379 9.95139C9.81907 9.78204 9.8675 9.64897 9.97646 9.45542C10.0733 9.26188 10.0249 9.08042 9.95225 8.93526C9.8675 8.8022 9.29849 7.33849 9.03214 6.74575Z" fill="white"/>
<defs>
<linearGradient id="paint0_linear_359_4189" x1="11.9562" y1="23.4099" x2="11.9562" y2="0.241575" gradientUnits="userSpaceOnUse">
<stop stop-color="#20B038"/>
<stop offset="1" stop-color="#60D66A"/>
</linearGradient>
<linearGradient id="paint1_linear_359_4189" x1="11.9558" y1="23.8253" x2="11.9558" y2="-0.173828" gradientUnits="userSpaceOnUse">
<stop stop-color="#F9F9F9"/>
<stop offset="1" stop-color="white"/>
</linearGradient>
</defs>
</svg>
